<svg version="1.0" xmlns="http://www.w3.org/2000/svg" width="800.000000" height="800.000000" viewBox="0 0 800.000000 800.000000" preserveAspectRatio="xMidYMid meet">
  <metadata>
    <rdf:RDF xmlns:rdf="http://www.w3.org/1999/02/22-rdf-syntax-ns#" xmlns:rdfs="http://www.w3.org/2000/01/rdf-schema#" xmlns:dc="http://purl.org/dc/elements/1.1/">
      <rdf:Description dc:format="image/svg+xml" dc:Label="1" dc:ContentProducer="001191330110MACRLGPT8B00000" dc:ProduceID="389028714" dc:ReservedCode1="RfjWEILfxYXiv8plZZq68PoT7u/zZNMo8KLbudxTlv4=" dc:ContentPropagator="001191330110MACRLGPT8B00000" dc:PropagateID="389028714" dc:ReservedCode2="RfjWEILfxYXiv8plZZq68PoT7u/zZNMo8KLbudxTlv4="/>
    </rdf:RDF>
  </metadata>
  <g transform="translate(95.875703,738.407157) scale(0.078689,-0.078689)" fill="#000000" stroke="none">
    <path d="M5641 6951 c-18 -10 -44 -35 -57 -57 -22 -35 -24 -50 -24 -161 0 -99 -4 -133 -20 -177 -25 -66 -81 -126 -152 -162 -48 -24 -68 -28 -199 -34 -169 -8 -197 -20 -231 -98 -23 -50 -19 -89 12 -140 34 -55 86 -72 222 -72 95 0 128 -4 174 -21 70 -27 128 -77 162 -143 24 -47 26 -63 30 -196 2 -80 8 -157 14 -173 15 -39 71 -85 113 -93 54 -10 120 19 152 67 24 36 26 48 29 182 2 95 9 158 19 187 23 65 77 125 142 157 52 25 70 28 200 33 123 4 145 8 170 26 89 66 98 170 19 243 -23 22 -39 25 -149 32 -188 13 -254 35 -320 108 -65 72 -71 91 -77 259 -5 131 -9 156 -27 180 -51 69 -132 91 -202 53z"/>
    <path d="M1611 6334 c-117 -31 -238 -126 -293 -230 -60 -113 -58 -52 -58 -1419 0 -1091 2 -1258 15 -1310 48 -182 196 -320 380 -354 80 -15 3762 -15 3854 -1 185 31 338 171 386 357 13 49 15 186 15 908 0 808 -1 852 -19 885 -27 50 -62 73 -123 77 -62 5 -106 -17 -138 -69 -19 -32 -20 -52 -20 -871 0 -733 -2 -842 -15 -875 -19 -44 -49 -78 -90 -100 -28 -16 -181 -17 -1885 -20 -1353 -2 -1869 0 -1908 8 -62 14 -108 49 -133 105 -18 38 -19 98 -19 1257 0 836 3 1226 11 1245 13 35 54 79 94 101 27 16 156 17 1515 22 l1485 5 34 24 c92 66 85 208 -12 254 -32 16 -153 17 -1529 16 -1272 0 -1501 -2 -1547 -15z"/>
    <path d="M3291 5565 c-82 -23 -147 -63 -205 -126 -59 -63 -88 -118 -105 -197 -7 -35 -11 -230 -11 -588 0 -605 2 -628 69 -731 47 -73 99 -118 176 -154 136 -64 305 -61 442 6 85 42 142 101 187 195 l31 65 3 594 c3 573 2 597 -17 660 -35 114 -134 217 -251 262 -73 29 -241 36 -319 14z m217 -305 c74 -33 72 -19 72 -612 0 -398 -3 -529 -13 -548 -22 -43 -74 -70 -134 -70 -61 0 -102 17 -132 56 -21 26 -21 34 -21 563 0 520 1 537 20 569 37 61 127 79 208 42z"/>
    <path d="M4335 5567 c-151 -40 -261 -143 -306 -288 -18 -57 -19 -99 -19 -622 0 -444 3 -573 14 -613 46 -172 183 -288 373 -316 151 -22 308 27 402 127 107 113 121 172 121 518 0 298 -3 312 -64 341 -52 25 -305 23 -362 -3 -80 -36 -106 -148 -53 -223 29 -40 69 -58 129 -58 l52 0 -4 -157 c-3 -137 -6 -162 -23 -187 -37 -55 -144 -74 -215 -38 -71 35 -70 26 -70 602 0 567 -1 557 62 603 38 28 123 33 167 10 67 -35 75 -57 81 -221 4 -126 8 -151 25 -174 65 -88 212 -73 260 28 26 55 18 336 -12 412 -46 114 -132 197 -252 243 -70 27 -231 35 -306 16z"/>
    <path d="M2330 5518 c-18 -13 -42 -34 -52 -48 -18 -25 -19 -58 -18 -810 0 -866 -3 -814 63 -864 26 -19 43 -21 231 -24 132 -2 218 1 246 8 54 14 94 54 111 108 16 55 -8 121 -59 160 -34 26 -42 27 -164 31 l-128 3 0 672 c0 619 -1 674 -18 706 -38 77 -142 105 -212 58z"/>
    <path d="M2410 2834 c-218 -59 -381 -224 -436 -444 -22 -88 -14 -250 16 -339 49 -140 171 -278 305 -346 106 -53 181 -69 315 -68 95 0 129 5 195 26 133 43 243 120 321 222 83 108 133 235 149 375 5 45 2 63 -17 100 -46 90 -159 114 -233 49 -39 -35 -50 -60 -64 -157 -15 -94 -46 -155 -110 -215 -72 -67 -127 -90 -233 -95 -67 -3 -98 0 -137 14 -113 40 -192 131 -213 243 -27 146 71 301 217 340 28 8 376 11 1121 11 895 0 1089 -2 1127 -14 150 -45 241 -206 203 -357 -28 -109 -103 -190 -208 -225 -78 -26 -217 -16 -286 20 -114 58 -182 158 -202 295 -17 122 -68 175 -163 174 -84 -1 -147 -68 -147 -155 0 -165 99 -375 232 -493 74 -65 217 -133 320 -151 327 -60 628 110 738 417 34 93 35 275 2 370 -61 176 -188 312 -363 387 l-64 27 -1165 2 c-1004 2 -1173 0 -1220 -13z"/>
  </g>
</svg>