<svg version="1.0" xmlns="http://www.w3.org/2000/svg" width="800.000000" height="800.000000" viewBox="0 0 800.000000 800.000000" preserveAspectRatio="xMidYMid meet">
  <metadata>
    <rdf:RDF xmlns:rdf="http://www.w3.org/1999/02/22-rdf-syntax-ns#" xmlns:rdfs="http://www.w3.org/2000/01/rdf-schema#" xmlns:dc="http://purl.org/dc/elements/1.1/">
      <rdf:Description dc:format="image/svg+xml" dc:Label="1" dc:ContentProducer="001191330110MACRLGPT8B00000" dc:ProduceID="389028715" dc:ReservedCode1="i8OSgRJCPA/OuX/nWmpgzN7EkUxJM03RTHMAc0pTc2w=" dc:ContentPropagator="001191330110MACRLGPT8B00000" dc:PropagateID="389028715" dc:ReservedCode2="i8OSgRJCPA/OuX/nWmpgzN7EkUxJM03RTHMAc0pTc2w="/>
    </rdf:RDF>
  </metadata>
  <g transform="translate(93.038327,717.259625) scale(0.078150,-0.078150)" fill="#000000" stroke="none">
    <path d="M3670 6719 c-308 -23 -580 -89 -859 -209 -321 -137 -589 -317 -826 -554 -217 -217 -364 -421 -490 -681 -118 -241 -179 -428 -227 -695 -29 -164 -37 -532 -14 -720 106 -867 654 -1641 1431 -2020 308 -150 596 -229 950 -261 150 -13 456 -6 614 15 l104 14 46 -27 c110 -65 277 -124 460 -163 89 -19 138 -21 666 -25 602 -5 709 0 810 38 116 43 207 142 252 274 l28 80 0 655 c0 590 -2 663 -18 737 -32 148 -67 253 -123 374 l-56 118 16 88 c56 312 44 715 -30 1008 -89 354 -266 709 -494 991 -91 113 -289 307 -400 394 -447 346 -935 532 -1495 570 -166 11 -193 11 -345 -1z m264 -496 c100 -200 214 -536 275 -813 23 -106 51 -266 51 -292 0 -17 -30 -18 -485 -18 l-486 0 6 38 c64 384 174 731 336 1055 l39 77 120 0 120 0 24 -47z m642 -73 c474 -162 887 -492 1152 -923 39 -64 72 -119 72 -122 0 -3 -243 -5 -539 -5 l-539 0 -7 63 c-10 89 -71 395 -101 506 -49 179 -113 373 -155 468 -22 48 -23 53 -10 53 5 0 62 -18 127 -40z m-1482 -47 c-96 -225 -188 -549 -234 -828 -12 -71 -23 -140 -26 -152 l-4 -23 -460 0 c-253 0 -460 3 -460 6 0 14 122 205 187 291 147 197 319 360 533 504 96 65 371 209 399 209 9 1 27 7 41 15 38 22 42 18 24 -22z m-319 -1948 l0 -485 -516 0 -517 0 -16 88 c-49 258 -46 610 5 835 l11 47 516 0 517 0 0 -485z m1539 443 c3 -24 8 -129 12 -233 l7 -191 -44 -28 c-140 -93 -310 -260 -399 -393 l-55 -82 -297 -1 -298 0 -7 28 c-10 36 -9 856 0 905 l8 37 533 0 534 0 6 -42z m1670 -30 c22 -103 36 -236 36 -355 l0 -103 -67 46 c-146 99 -364 185 -556 221 -122 24 -417 23 -531 0 -44 -9 -81 -16 -82 -14 -2 1 -7 64 -11 140 l-8 137 602 0 602 0 15 -72z m-579 -652 c346 -102 599 -342 715 -676 46 -134 50 -198 50 -798 0 -369 -4 -570 -10 -583 -10 -18 -27 -19 -566 -19 -513 0 -563 2 -652 20 -161 32 -265 75 -394 158 -236 155 -397 400 -459 697 -22 102 -16 315 11 425 90 374 352 648 734 770 93 30 183 39 331 36 126 -3 165 -8 240 -30z m-2571 -728 c59 -304 152 -639 254 -925 23 -62 37 -113 33 -113 -19 0 -213 85 -299 131 -278 148 -516 352 -706 606 -80 107 -172 254 -192 306 -6 16 20 17 450 17 l456 0 4 -22z m813 0 c-31 -128 -32 -400 -1 -558 33 -172 116 -387 204 -526 22 -35 40 -66 40 -69 0 -7 -179 -6 -206 1 -16 4 -35 43 -87 172 -135 342 -216 601 -301 975 l-6 27 181 0 181 0 -5 -22z"/>
    <path d="M4658 3136 c-58 -16 -110 -55 -146 -108 -20 -32 -27 -56 -30 -108 -5 -83 8 -124 54 -179 53 -61 105 -85 184 -85 250 0 334 337 114 456 -62 33 -116 41 -176 24z"/>
    <path d="M5485 3141 c-78 -19 -161 -96 -183 -169 -34 -112 13 -229 115 -289 39 -23 59 -27 117 -28 60 0 78 4 118 27 115 68 158 211 98 328 -27 52 -95 108 -154 125 -54 16 -65 17 -111 6z"/>
  </g>
</svg>