<svg version="1.0" xmlns="http://www.w3.org/2000/svg" width="800.000000" height="800.000000" viewBox="0 0 800.000000 800.000000" preserveAspectRatio="xMidYMid meet">
  <metadata>
    <rdf:RDF xmlns:rdf="http://www.w3.org/1999/02/22-rdf-syntax-ns#" xmlns:rdfs="http://www.w3.org/2000/01/rdf-schema#" xmlns:dc="http://purl.org/dc/elements/1.1/">
      <rdf:Description dc:format="image/svg+xml" dc:Label="1" dc:ContentProducer="001191330110MACRLGPT8B00000" dc:ProduceID="389028713" dc:ReservedCode1="gLAme9YWE6ksE0J3wqzObqkP5MdJyYacMrc2wF53FQI=" dc:ContentPropagator="001191330110MACRLGPT8B00000" dc:PropagateID="389028713" dc:ReservedCode2="gLAme9YWE6ksE0J3wqzObqkP5MdJyYacMrc2wF53FQI="/>
    </rdf:RDF>
  </metadata>
  <g transform="translate(80.235243,750.398174) scale(0.084029,-0.084029)" fill="#000000" stroke="none">
    <path d="M3585 6664 c-515 -53 -977 -237 -1352 -541 -417 -337 -722 -811 -853 -1328 -54 -213 -73 -369 -74 -615 0 -218 10 -320 50 -520 161 -794 766 -1509 1534 -1814 654 -258 1397 -227 2025 86 645 322 1134 926 1318 1628 61 232 72 329 72 640 -1 257 -3 284 -28 412 -31 157 -72 295 -96 322 -23 26 -65 46 -98 46 -42 0 -92 -36 -109 -77 -14 -33 -14 -42 11 -129 112 -395 112 -780 -1 -1190 -216 -789 -886 -1433 -1674 -1607 -187 -41 -291 -52 -510 -51 -378 0 -643 62 -975 224 -246 121 -421 246 -615 440 -343 342 -560 767 -635 1240 -36 223 -29 541 16 775 113 590 461 1112 966 1452 186 124 478 252 698 303 398 94 806 85 1172 -26 130 -39 148 -41 186 -15 41 27 59 58 61 102 1 49 -27 87 -85 116 -58 29 -284 86 -429 108 -110 17 -478 29 -575 19z"/>
    <path d="M5240 6417 c-320 -96 -527 -379 -507 -692 12 -181 71 -309 202 -441 145 -145 294 -208 495 -208 125 0 203 18 315 74 144 71 248 177 320 325 52 108 65 166 65 288 0 113 -18 186 -72 297 -81 167 -263 311 -454 360 -109 28 -263 27 -364 -3z m272 -268 c128 -27 230 -105 285 -217 36 -73 38 -80 38 -177 0 -93 -2 -105 -33 -167 -42 -85 -129 -168 -209 -199 -80 -30 -201 -37 -278 -14 -231 67 -348 305 -263 532 26 71 132 183 202 214 85 37 170 46 258 28z"/>
    <path d="M3535 6095 c-416 -67 -757 -237 -1061 -528 -291 -278 -491 -647 -565 -1042 -27 -141 -36 -411 -20 -566 40 -383 192 -736 445 -1034 76 -88 101 -114 221 -220 171 -151 428 -298 645 -369 262 -87 555 -116 829 -82 575 71 1068 378 1396 871 129 192 215 383 269 597 75 291 84 573 30 868 -19 102 -42 149 -82 173 -60 35 -137 9 -169 -58 -16 -33 -16 -41 1 -123 65 -330 40 -684 -69 -961 -99 -253 -221 -440 -418 -639 -239 -243 -526 -398 -866 -469 -172 -36 -436 -38 -611 -5 -699 131 -1256 696 -1365 1387 -41 264 -21 559 55 785 90 267 209 464 400 664 330 344 733 517 1205 519 182 0 295 -16 452 -65 96 -29 105 -30 140 -17 29 11 43 25 61 61 20 40 22 52 13 85 -20 75 -69 99 -305 149 -103 22 -153 26 -331 30 -151 2 -235 -1 -300 -11z"/>
    <path d="M3744 5198 c-52 -13 -73 -46 -94 -149 -23 -115 -40 -165 -86 -248 -73 -132 -163 -229 -294 -316 -93 -62 -179 -99 -307 -134 -92 -25 -112 -34 -135 -62 -48 -58 -32 -161 30 -193 15 -7 63 -23 107 -35 44 -12 112 -37 150 -56 296 -142 478 -382 528 -696 9 -54 21 -106 28 -117 32 -52 118 -68 176 -32 42 25 51 43 68 142 58 330 250 570 571 710 43 19 104 41 134 47 85 19 88 21 120 47 41 35 55 91 35 141 -24 55 -60 79 -160 102 -289 69 -555 293 -655 554 -17 42 -37 109 -45 148 -8 39 -19 78 -24 87 -26 49 -91 75 -147 60z m107 -610 c83 -126 261 -289 386 -355 29 -16 53 -30 53 -33 0 -3 -24 -17 -53 -33 -139 -73 -300 -228 -393 -380 -31 -51 -58 -93 -59 -95 -1 -2 -17 23 -35 55 -80 144 -229 303 -368 394 -39 26 -78 50 -85 53 -9 5 -9 7 2 12 44 20 198 132 259 189 74 69 182 204 211 263 14 30 17 32 26 17 5 -9 31 -49 56 -87z"/>
    <path d="M2285 4721 c-29 -13 -65 -49 -76 -77 -5 -14 -19 -80 -31 -147 -19 -102 -23 -156 -22 -322 0 -270 32 -434 125 -654 223 -521 711 -902 1264 -987 120 -18 386 -18 500 1 250 41 465 126 684 272 130 87 341 302 434 443 258 391 341 829 245 1290 -18 89 -26 110 -53 137 -53 53 -129 56 -176 7 -31 -33 -31 -78 0 -249 31 -175 26 -413 -12 -575 -54 -228 -151 -417 -309 -605 -303 -359 -767 -541 -1233 -484 -307 37 -585 177 -816 408 -357 359 -485 812 -377 1332 23 109 23 109 3 145 -11 20 -29 43 -41 51 -28 18 -83 25 -109 14z"/>
  </g>
</svg>