<svg version="1.0" xmlns="http://www.w3.org/2000/svg" width="800.000000" height="800.000000" viewBox="0 0 800.000000 800.000000" preserveAspectRatio="xMidYMid meet">
  <metadata>
    <rdf:RDF xmlns:rdf="http://www.w3.org/1999/02/22-rdf-syntax-ns#" xmlns:rdfs="http://www.w3.org/2000/01/rdf-schema#" xmlns:dc="http://purl.org/dc/elements/1.1/">
      <rdf:Description dc:format="image/svg+xml" dc:Label="1" dc:ContentProducer="001191330110MACRLGPT8B00000" dc:ProduceID="389029180" dc:ReservedCode1="3kwnxZQaOECyBKRFX2xQ2D7/YeSg6rhF6pKhxQUQxWM=" dc:ContentPropagator="001191330110MACRLGPT8B00000" dc:PropagateID="389029180" dc:ReservedCode2="3kwnxZQaOECyBKRFX2xQ2D7/YeSg6rhF6pKhxQUQxWM="/>
    </rdf:RDF>
  </metadata>
  <g transform="translate(95.799561,727.106374) scale(0.078024,-0.078024)" fill="#000000" stroke="none">
    <path d="M1951 6259 c-346 -68 -629 -330 -718 -666 l-26 -98 1 -1288 c1 -902 5 -1306 12 -1349 37 -204 180 -432 347 -555 96 -71 220 -131 332 -160 l96 -24 1825 -3 c1004 -1 1870 1 1925 5 117 10 192 28 295 72 111 48 185 100 285 202 142 144 228 313 254 499 15 104 15 2525 1 2614 -60 366 -354 670 -722 746 -69 14 -277 16 -1970 15 -1041 -1 -1913 -5 -1937 -10z m3848 -384 c182 -43 339 -197 387 -380 18 -66 20 -2503 3 -2587 -39 -188 -205 -353 -398 -394 -103 -21 -3697 -21 -3790 1 -212 50 -374 228 -402 440 -6 53 -9 494 -7 1295 l3 1215 23 65 c61 171 194 295 364 340 71 18 131 19 1913 19 1607 1 1848 -1 1904 -14z"/>
    <path d="M2901 5419 c-171 -30 -320 -175 -367 -360 -21 -81 -14 -202 16 -283 12 -32 18 -61 14 -65 -5 -4 -44 -33 -87 -65 -252 -190 -341 -417 -244 -626 29 -62 115 -146 184 -178 l58 -27 500 0 500 0 57 27 c80 37 152 107 191 187 29 60 32 73 31 161 0 73 -5 108 -22 151 -45 113 -126 209 -265 314 -58 43 -76 62 -71 74 45 106 57 250 29 347 -46 160 -152 275 -302 328 -55 19 -157 26 -222 15z m133 -401 c50 -79 5 -193 -68 -174 -54 13 -74 128 -31 176 26 28 80 27 99 -2z m128 -604 c147 -111 208 -174 208 -214 0 -7 -126 -10 -395 -10 -376 0 -395 1 -395 18 0 29 56 85 174 175 l108 82 118 -1 118 -2 64 -48z"/>
    <path d="M4085 5198 c-88 -31 -141 -111 -133 -205 6 -65 43 -117 109 -151 l44 -22 616 2 615 3 36 24 c97 67 119 204 45 288 -66 75 -40 73 -707 72 -388 0 -605 -4 -625 -11z"/>
    <path d="M4107 4409 c-20 -3 -54 -17 -75 -32 -117 -77 -105 -265 20 -326 44 -21 53 -21 659 -21 l615 0 47 29 c60 39 87 91 87 170 0 52 -4 65 -32 102 -65 84 -29 79 -695 82 -325 1 -606 -1 -626 -4z"/>
    <path d="M2305 3543 c-60 -31 -90 -72 -106 -143 -17 -73 29 -163 101 -200 39 -20 56 -20 1038 -18 l998 3 37 25 c94 65 111 199 35 286 -60 68 3 64 -1087 64 -880 -1 -989 -3 -1016 -17z"/>
    <path d="M4775 3543 c-71 -37 -105 -94 -105 -176 0 -71 40 -135 102 -166 42 -20 59 -21 297 -21 284 0 303 4 358 76 52 69 41 198 -24 256 -48 44 -80 48 -345 48 -211 -1 -258 -3 -283 -17z"/>
  </g>
</svg>