<svg version="1.0" xmlns="http://www.w3.org/2000/svg" width="800.000000" height="800.000000" viewBox="0 0 800.000000 800.000000" preserveAspectRatio="xMidYMid meet">
  <metadata>
    <rdf:RDF xmlns:rdf="http://www.w3.org/1999/02/22-rdf-syntax-ns#" xmlns:rdfs="http://www.w3.org/2000/01/rdf-schema#" xmlns:dc="http://purl.org/dc/elements/1.1/">
      <rdf:Description dc:format="image/svg+xml" dc:Label="1" dc:ContentProducer="001191330110MACRLGPT8B00000" dc:ProduceID="389032719" dc:ReservedCode1="NUMJqvJlGPlGq49DA5NXPWoVOELz6LAcfO7Jr5aEctU=" dc:ContentPropagator="001191330110MACRLGPT8B00000" dc:PropagateID="389032719" dc:ReservedCode2="NUMJqvJlGPlGq49DA5NXPWoVOELz6LAcfO7Jr5aEctU="/>
    </rdf:RDF>
  </metadata>
  <g transform="translate(138.496323,703.882659) scale(0.071423,-0.071423)" fill="#000000" stroke="none">
    <path d="M3299 7180 c-111 -14 -216 -82 -277 -178 -52 -81 -62 -136 -62 -333 l0 -177 -27 -10 c-16 -5 -68 -24 -118 -42 -49 -18 -130 -51 -178 -73 l-88 -40 -127 125 c-70 69 -144 135 -165 148 -46 27 -128 50 -183 50 -59 0 -164 -34 -210 -69 -21 -16 -157 -146 -301 -288 -279 -276 -299 -301 -323 -418 -15 -71 -8 -144 22 -222 18 -49 42 -79 160 -199 l138 -141 -46 -99 c-26 -54 -61 -137 -79 -184 l-33 -85 -199 -5 c-193 -5 -200 -6 -256 -33 -78 -39 -153 -115 -191 -196 l-31 -66 -3 -363 c-2 -305 0 -373 13 -425 30 -116 106 -205 224 -261 65 -31 68 -31 259 -36 l194 -5 32 -85 c19 -47 56 -130 84 -186 l50 -100 -137 -140 c-176 -179 -196 -215 -196 -359 0 -163 9 -176 331 -490 146 -143 285 -273 307 -288 63 -42 137 -60 231 -55 120 7 162 32 332 200 l141 139 124 -44 c68 -24 151 -53 184 -64 l60 -20 5 -224 c5 -221 5 -225 34 -287 38 -81 131 -171 213 -203 56 -23 68 -24 421 -27 395 -3 437 1 527 53 53 31 126 109 153 161 39 77 44 134 40 476 l-3 326 -30 44 c-80 115 -240 115 -320 0 l-30 -44 -5 -311 -5 -312 -300 0 -300 0 -5 260 c-5 281 -8 296 -65 363 -35 41 -84 67 -167 86 -110 25 -272 84 -379 136 -91 45 -109 50 -168 50 -105 0 -142 -24 -321 -204 -85 -86 -158 -156 -163 -156 -4 0 -83 73 -175 163 -92 90 -192 186 -222 214 l-55 52 176 178 c186 189 199 209 199 301 0 45 -22 111 -51 153 -51 74 -151 287 -184 393 -34 111 -41 123 -89 171 -70 70 -93 75 -342 75 -115 0 -215 4 -222 8 -9 7 -12 73 -10 298 l3 289 225 5 c202 4 230 7 271 26 48 23 91 62 114 104 7 14 34 89 60 165 25 77 69 183 98 235 100 187 97 178 97 254 0 48 -6 84 -19 111 -11 24 -82 103 -175 195 -86 85 -156 157 -156 160 0 8 428 434 440 438 6 2 73 -58 150 -135 171 -168 204 -188 315 -188 79 0 82 2 219 69 83 41 205 90 305 123 187 60 225 83 263 160 22 46 23 60 26 286 l4 237 303 0 304 0 3 -237 c3 -221 5 -241 24 -278 46 -85 104 -123 247 -161 105 -29 268 -94 398 -161 88 -45 99 -48 169 -48 106 0 138 20 312 192 l147 146 68 -61 c37 -33 139 -132 225 -219 l158 -158 -161 -154 c-189 -182 -213 -218 -214 -326 0 -65 4 -79 58 -192 52 -111 111 -273 137 -380 18 -71 68 -134 134 -168 l60 -30 243 -3 243 -4 -2 -296 -3 -297 -360 -5 c-253 -4 -366 -9 -381 -17 -39 -22 -93 -91 -100 -128 -16 -89 25 -180 101 -219 39 -20 54 -21 435 -21 l395 0 70 33 c110 52 186 139 219 251 23 79 24 732 1 809 -23 75 -91 170 -154 213 -90 61 -132 69 -350 69 -189 0 -192 0 -201 23 -5 12 -36 92 -69 177 l-61 155 145 145 c182 183 200 216 200 365 0 163 -7 173 -347 511 -262 261 -287 283 -343 304 -110 40 -211 36 -310 -13 -22 -11 -99 -77 -170 -148 -72 -71 -138 -129 -147 -129 -8 0 -49 15 -89 33 -41 19 -134 55 -206 82 l-133 48 0 177 c0 196 -9 246 -61 331 -64 104 -169 165 -307 180 -101 10 -600 10 -683 -1z"/>
    <path d="M3485 5719 c-103 -12 -259 -51 -357 -88 -289 -112 -517 -293 -690 -551 -167 -246 -241 -495 -241 -800 0 -171 20 -291 73 -450 169 -508 605 -876 1136 -961 161 -25 417 -13 578 28 l59 15 51 -49 c28 -28 347 -337 709 -689 362 -351 683 -660 714 -686 277 -232 715 -185 924 99 94 126 134 258 126 408 -10 189 -72 312 -238 469 -52 50 -231 223 -399 385 -344 334 -793 767 -888 856 l-63 60 30 92 c53 161 66 250 66 443 0 247 -35 400 -140 615 -137 283 -369 517 -654 659 -117 59 -269 110 -386 130 -118 20 -310 27 -410 15z m278 -394 c93 -7 222 -43 324 -90 279 -129 492 -386 574 -695 19 -70 23 -111 23 -230 1 -241 -43 -391 -174 -596 -12 -20 -1 -33 186 -216 109 -107 318 -308 464 -448 952 -913 993 -955 1008 -1006 37 -127 -25 -254 -144 -300 -54 -21 -153 -16 -209 11 -24 11 -129 106 -260 234 -121 119 -292 286 -380 371 -88 86 -326 318 -530 516 -203 198 -401 390 -439 426 l-70 66 -45 -22 c-207 -104 -508 -130 -741 -65 -414 114 -710 463 -761 896 -17 145 10 339 71 497 l11 30 57 -56 c623 -604 583 -573 747 -573 84 0 107 4 147 23 74 37 134 96 170 170 30 61 33 74 33 162 0 152 -3 156 -350 501 -162 161 -292 296 -288 299 15 13 139 58 208 75 69 17 230 34 270 29 11 -2 55 -6 98 -9z"/>
  </g>
</svg>